<?xml version="1.0" encoding="UTF-8"?>
<svg xmlns="http://www.w3.org/2000/svg" width="317" height="60" viewBox="0 0 317 60" fill="none">
  <path d="M25.8196 21.4036L33.2092 11.165H23.9677L21.2078 14.9933L25.8196 21.4036Z" fill="#201B24"></path>
  <path d="M21.2078 40.5815L23.9499 44.4276H33.1914L25.8018 34.189L21.2078 40.5815Z" fill="#201B24"></path>
  <path d="M9.18805 11.165H0L12.0014 27.7961L0 44.4271H9.18805L21.2251 27.7961L9.18805 11.165Z" fill="#201B24"></path>
  <path d="M35.4578 27.6048C35.4578 37.9641 42.1643 44.8503 50.5476 44.8503C55.817 44.8503 59.5895 42.3353 61.5655 39.4611V44.3114H70.0087V11.1377H61.5655V15.8683C59.5895 13.1138 55.9368 10.5988 50.6075 10.5988C42.1643 10.5988 35.4578 17.2455 35.4578 27.6048ZM61.5655 27.7246C61.5655 34.012 57.3739 37.485 52.7632 37.485C48.2721 37.485 44.0206 33.8922 44.0206 27.6048C44.0206 21.3174 48.2721 17.9641 52.7632 17.9641C57.3739 17.9641 61.5655 21.4371 61.5655 27.7246Z" fill="#201B24"></path>
  <path d="M74.2442 27.7246C74.2442 38.1437 81.0706 44.8503 90.6514 44.8503C98.9149 44.8503 104.484 40.1796 106.28 33.1138H97.2383C96.2203 36.1078 94.0646 37.6647 90.5916 37.6647C85.9209 37.6647 82.8071 34.1916 82.8071 27.7246C82.8071 21.2575 85.9209 17.7246 90.5916 17.7246C94.0646 17.7246 96.2802 19.521 97.2383 22.3353H106.28C104.484 14.9102 98.9149 10.5988 90.6514 10.5988C81.0706 10.5988 74.2442 17.3054 74.2442 27.7246Z" fill="#201B24"></path>
  <path d="M108.47 27.6048C108.47 37.9641 115.176 44.8503 123.559 44.8503C128.829 44.8503 132.601 42.3353 134.577 39.4611V44.3114H143.02V11.1377H134.577V15.8683C132.601 13.1138 128.949 10.5988 123.619 10.5988C115.176 10.5988 108.47 17.2455 108.47 27.6048ZM134.577 27.7246C134.577 34.012 130.386 37.485 125.775 37.485C121.284 37.485 117.032 33.8922 117.032 27.6048C117.032 21.3174 121.284 17.9641 125.775 17.9641C130.386 17.9641 134.577 21.4371 134.577 27.7246Z" fill="#201B24"></path>
  <path d="M147.256 27.6048C147.256 37.9641 153.963 44.8503 162.406 44.8503C167.615 44.8503 171.328 42.4551 173.304 39.4012V44.3114H181.807V0H173.304V15.7485C171.028 12.6347 166.837 10.5988 162.466 10.5988C153.963 10.5988 147.256 17.2455 147.256 27.6048ZM173.364 27.7246C173.364 34.012 169.172 37.485 164.561 37.485C160.07 37.485 155.819 33.8922 155.819 27.6048C155.819 21.3174 160.07 17.9641 164.561 17.9641C169.172 17.9641 173.364 21.4371 173.364 27.7246Z" fill="#201B24"></path>
  <path d="M202.45 17.485C206.761 17.485 210.234 20.2395 210.354 24.6108H194.605C195.264 20.0599 198.438 17.485 202.45 17.485ZM218.198 33.8922H209.156C208.078 36.1078 206.102 37.9042 202.51 37.9042C198.318 37.9042 194.965 35.1497 194.546 30.2395H218.797C218.977 29.1617 219.037 28.0838 219.037 27.006C219.037 17.1257 212.27 10.5988 202.689 10.5988C192.869 10.5988 186.043 17.2455 186.043 27.7246C186.043 38.1437 193.049 44.8503 202.689 44.8503C210.893 44.8503 216.402 40 218.198 33.8922Z" fill="#201B24"></path>
  <path d="M269.766 44.3114H278.15V24.8503C278.15 15.6886 272.521 10.6587 264.557 10.6587C259.706 10.6587 255.335 13.2335 253.18 17.006C250.904 12.8743 246.653 10.6587 241.503 10.6587C237.371 10.6587 233.838 12.3952 231.742 15.1497V11.1377H223.359V44.3114H231.742V25.988C231.742 20.7186 234.677 17.9641 239.227 17.9641C243.659 17.9641 246.593 20.7186 246.593 25.988V44.3114H254.976V25.988C254.976 20.7186 257.91 17.9641 262.401 17.9641C266.832 17.9641 269.766 20.7186 269.766 25.988V44.3114Z" fill="#201B24"></path>
  <path d="M298.44 34.3114L289.877 11.1377H280.476L293.769 43.4731L286.584 60H295.506L316.045 11.1377H307.123L298.44 34.3114Z" fill="#201B24"></path>
</svg>
